<svg width="664" height="142" viewBox="0 0 664 142" fill="none" xmlns="http://www.w3.org/2000/svg">
<path d="M63.1972 140.099L56.9532 107.593H27.8143L21.7595 140.099H0L26.8683 9.88487H58.4669L85.1459 140.099H63.1972ZM31.4094 88.2035H53.1689L42.1945 30.415L31.4094 88.2035Z" fill="#F3F3F3"/>
<path d="M151.508 58.1687C151.508 52.7193 148.607 49.9947 142.804 49.9947C138.263 49.9947 133.848 51.0718 129.559 53.2262V118.999H140.155C147.724 118.999 151.508 115.64 151.508 108.924V58.1687ZM106.664 0H129.37V32.506C135.929 30.0982 142.867 28.8942 150.184 28.8942C157.626 28.8942 163.555 30.9853 167.97 35.1673C172.385 39.2227 174.592 45.2423 174.592 53.2262V112.155C174.592 121.407 172.006 128.377 166.834 133.066C161.662 137.755 154.725 140.099 146.021 140.099H106.664V0Z" fill="#F3F3F3"/>
<path d="M246.121 58.3588C246.121 50.8818 242.273 47.1432 234.579 47.1432C227.01 47.1432 223.226 50.8818 223.226 58.3588V111.205C223.226 118.682 227.01 122.42 234.579 122.42C242.273 122.42 246.121 118.682 246.121 111.205V58.3588ZM200.709 57.7885C200.709 48.4105 203.485 41.0602 209.035 35.7376C214.711 30.2883 223.226 27.5636 234.579 27.5636C246.057 27.5636 254.572 30.2883 260.122 35.7376C265.799 41.0602 268.637 48.4105 268.637 57.7885V111.775C268.637 121.153 265.799 128.567 260.122 134.016C254.572 139.339 246.057 142 234.579 142C223.226 142 214.711 139.339 209.035 134.016C203.485 128.567 200.709 121.153 200.709 111.775V57.7885Z" fill="#F3F3F3"/>
<path d="M340.777 29.4645H363.483V140.099H341.913V134.967C335.732 138.515 328.605 140.289 320.532 140.289C312.585 140.289 306.467 138.071 302.178 133.636C297.889 129.2 295.745 122.801 295.745 114.436V29.4645H318.829V110.444C318.829 116.527 321.856 119.569 327.911 119.569C332.326 119.569 336.615 118.365 340.777 115.957V29.4645Z" fill="#F3F3F3"/>
<path d="M417.586 9.88487V29.4645H437.264V48.8541H417.586V111.775C417.586 117.731 420.74 120.71 427.047 120.71C430.2 120.71 434.048 119.949 438.589 118.428V138.768C433.291 140.543 428.056 141.43 422.884 141.43C404.215 141.43 394.881 132.242 394.881 113.866V48.8541H384.095V29.4645H395.827L402.638 9.88487H417.586Z" fill="#F3F3F3"/>
<path d="M555.171 9.88487H577.876V109.494C577.876 119.379 574.786 127.299 568.605 133.256C562.424 139.085 553.279 142 541.169 142C529.185 142 520.103 139.085 513.922 133.256C507.867 127.299 504.84 119.379 504.84 109.494V9.88487H527.546V108.353C527.546 116.971 532.15 121.28 541.358 121.28C550.567 121.28 555.171 116.971 555.171 108.353V9.88487Z" fill="#F3F3F3"/>
<path d="M601.22 57.5984C601.22 47.8403 604.059 40.5533 609.735 35.7376C615.411 30.9219 624.683 28.5141 637.549 28.5141C645.875 28.5141 653.317 29.5279 659.877 31.5556V51.8956C654.074 49.8679 647.578 48.8541 640.388 48.8541C633.324 48.8541 628.719 49.6778 626.575 51.3253C624.557 52.8461 623.548 55.3806 623.548 58.9291V61.5904C623.548 64.125 624.115 66.1526 625.25 67.6734C626.512 69.0674 628.909 70.8416 632.441 72.996L648.145 82.3106C658.615 88.5203 663.85 96.5676 663.85 106.452V111.395C663.85 131.165 650.983 141.05 625.25 141.05C616.168 141.05 608.221 140.162 601.41 138.388V117.668C607.591 119.569 614.402 120.519 621.845 120.519C629.287 120.519 634.333 119.696 636.982 118.048C639.757 116.401 641.144 113.93 641.144 110.635V107.973C641.144 105.439 640.388 103.411 638.874 101.89C637.486 100.369 634.459 98.2784 629.792 95.6171L615.601 87.253C606.014 81.6769 601.22 73.6296 601.22 63.1111V57.5984Z" fill="#F3F3F3"/>
</svg>
