<svg width="65" height="65" viewBox="0 0 65 65" fill="none" xmlns="http://www.w3.org/2000/svg">
<path d="M55.6172 34.699H50.5903C51.1027 36.1018 51.3826 37.6157 51.3826 39.1936V58.1922C51.3826 58.8501 51.2681 59.4815 51.0598 60.0688H59.3703C62.4747 60.0688 65.0002 57.5432 65.0002 54.439V44.082C65.0003 38.9082 60.791 34.699 55.6172 34.699Z" fill="#203354"/>
<path d="M13.6177 39.1936C13.6177 37.6156 13.8976 36.1018 14.41 34.699H9.38312C4.20927 34.699 0 38.9082 0 44.0821V54.4391C0 57.5433 2.52548 60.069 5.62987 60.069H13.9405C13.7322 59.4814 13.6177 58.8501 13.6177 58.1922V39.1936Z" fill="#203354"/>
<path d="M38.2463 29.8105H26.7542C21.5804 29.8105 17.3711 34.0198 17.3711 39.1937V58.1922C17.3711 59.2286 18.2113 60.0689 19.2477 60.0689H45.7528C46.7892 60.0689 47.6294 59.2287 47.6294 58.1922V39.1937C47.6294 34.0198 43.4201 29.8105 38.2463 29.8105Z" fill="#008AC3"/>
<path d="M32.5002 4.93091C26.278 4.93091 21.2158 9.99305 21.2158 16.2154C21.2158 20.436 23.5453 24.1221 26.9855 26.0573C28.6172 26.9752 30.4984 27.4998 32.5002 27.4998C34.502 27.4998 36.3832 26.9752 38.0149 26.0573C41.4552 24.1221 43.7846 20.4359 43.7846 16.2154C43.7846 9.99317 38.7224 4.93091 32.5002 4.93091Z" fill="#008AC3"/>
<path d="M12.6848 15.4487C8.03136 15.4487 4.24561 19.2345 4.24561 23.888C4.24561 28.5414 8.03136 32.3272 12.6848 32.3272C13.8652 32.3272 14.9893 32.0827 16.0104 31.6432C17.7758 30.8831 19.2314 29.5376 20.1322 27.8523C20.7644 26.6695 21.1241 25.3201 21.1241 23.888C21.1241 19.2346 17.3383 15.4487 12.6848 15.4487Z" fill="#203354"/>
<path d="M52.3152 15.4487C47.6617 15.4487 43.876 19.2345 43.876 23.888C43.876 25.3202 44.2356 26.6696 44.8679 27.8523C45.7686 29.5378 47.2242 30.8832 48.9897 31.6432C50.0107 32.0827 51.1348 32.3272 52.3152 32.3272C56.9687 32.3272 60.7544 28.5414 60.7544 23.888C60.7544 19.2345 56.9687 15.4487 52.3152 15.4487Z" fill="#203354"/>
</svg>
