<svg width="65" height="65" viewBox="0 0 65 65" fill="none" xmlns="http://www.w3.org/2000/svg">
<g clip-path="url(#clip0_113_2605)">
<path d="M19.1699 49.7656H22.9785V53.5742H19.1699V49.7656Z" fill="#203354"/>
<path d="M26.7871 49.7656H30.5957V53.5742H26.7871V49.7656Z" fill="#203354"/>
<path d="M42.0215 49.7656H53.4473V65H42.0215V49.7656Z" fill="#203354"/>
<path d="M11.5527 49.7656H15.3613V53.5742H11.5527V49.7656Z" fill="#203354"/>
<path d="M49.6387 38.3399V29.9807L26.7871 37.5979V29.9807L0 38.8737V65.0001H38.2129V45.9571H57.2559V65.0001H65V38.3399H49.6387ZM34.4043 57.3829H7.74414V45.9571H34.4043V57.3829Z" fill="#008AC3"/>
<path d="M57.2558 15.4883H30.0601L30.6533 13.1228C31.9867 7.78743 36.7586 4.0625 42.2558 4.0625H50.6838C52.0265 1.73977 54.5221 0 57.2558 0C61.4568 0 65 3.67009 65 7.87109C65 12.0721 61.4568 15.4883 57.2558 15.4883Z" fill="#008AC3"/>
<path d="M18.9355 15.4883H7.2085L7.80175 13.1228C9.13514 7.78743 13.9071 4.0625 19.4042 4.0625H31.1313L30.538 6.42802C29.2047 11.7633 24.4327 15.4883 18.9355 15.4883Z" fill="#008AC3"/>
<path d="M40.1172 29.1408V19.2969H32.5V31.6796L40.1172 29.1408Z" fill="#203354"/>
<path d="M17.2656 29.1417V19.2969H9.64844V31.6824L17.2656 29.1417Z" fill="#203354"/>
</g>
<defs>
<clipPath id="clip0_113_2605">
<rect width="65" height="65" fill="white"/>
</clipPath>
</defs>
</svg>
