<svg width="65" height="65" viewBox="0 0 65 65" fill="none" xmlns="http://www.w3.org/2000/svg">
<g clip-path="url(#clip0_113_2620)">
<path d="M17.4109 26.4285C15.4363 27.4321 13.2411 27.9235 11.027 27.8573C8.81291 27.9235 6.61771 27.4321 4.64307 26.4285V52.3194C5.22158 52.261 5.80268 52.2319 6.38414 52.2323C8.59822 52.1662 10.7934 52.6575 12.7681 53.6611V45.268C12.7681 43.4109 14.6066 41.8834 17.4109 41.1301V26.4285Z" fill="#203354"/>
<path d="M6.38393 59.1966C9.90967 59.1966 12.7679 58.1572 12.7679 56.8751C12.7679 55.593 9.90967 54.5537 6.38393 54.5537C2.85818 54.5537 0 55.593 0 56.8751C0 58.1572 2.85818 59.1966 6.38393 59.1966Z" fill="#008AC3"/>
<path d="M0 60.0891V62.6787C0 63.6072 2.54545 65.0001 6.38393 65.0001C10.2224 65.0001 12.7679 63.6072 12.7679 62.6787V60.0891C10.7932 61.0928 8.59801 61.5841 6.38393 61.5179C4.16985 61.5841 1.97464 61.0928 0 60.0891Z" fill="#008AC3"/>
<path d="M34.2653 10.5974C35.1237 11.2419 36.1668 11.5931 37.2402 11.5991C36.2344 9.87179 35.4383 8.03064 34.8689 6.11469C34.6968 5.49705 35.0579 4.85681 35.6756 4.68469C36.2932 4.51257 36.9335 4.87374 37.1056 5.49139C37.752 7.6721 38.7405 9.73638 40.0341 11.6072H41.2273C42.5233 9.73838 43.5116 7.67401 44.1546 5.49255C44.3264 4.87458 44.9666 4.51289 45.5846 4.68469C46.2026 4.85649 46.5643 5.49673 46.3925 6.11469C45.8235 8.02899 45.0283 9.86857 44.0234 11.5944C45.0755 11.5783 46.0955 11.2293 46.9368 10.5974C49.6541 8.47326 50.607 5.09559 50.9204 2.63487C50.983 2.21319 50.788 1.79483 50.4248 1.57166C50.0244 1.31061 49.5077 1.31061 49.1074 1.57166C48.2943 2.08156 47.3497 2.34223 46.3901 2.32148C45.0455 2.33234 43.7483 1.82527 42.7675 0.905407C42.1938 0.326141 41.4123 0.000244141 40.597 0.000244141C39.7817 0.000244141 39.0002 0.326141 38.4265 0.905407C37.4457 1.82458 36.1492 2.33157 34.805 2.32148C33.8501 2.34254 32.9099 2.08349 32.1006 1.5763C31.9043 1.45086 31.6765 1.38365 31.4436 1.38246C31.2076 1.38326 30.9766 1.45086 30.7774 1.57746C30.4156 1.80009 30.2215 2.21705 30.2841 2.63719C30.6009 5.09791 31.5504 8.47326 34.2653 10.5974Z" fill="#008AC3"/>
<path d="M17.9909 9.28568C21.5166 9.28568 24.3748 8.24634 24.3748 6.96425C24.3748 5.68216 21.5166 4.64282 17.9909 4.64282C14.4651 4.64282 11.6069 5.68216 11.6069 6.96425C11.6069 8.24634 14.4651 9.28568 17.9909 9.28568Z" fill="#008AC3"/>
<path d="M11.027 25.5357C14.5527 25.5357 17.4109 24.4963 17.4109 23.2143C17.4109 21.9322 14.5527 20.8928 11.027 20.8928C7.50125 20.8928 4.64307 21.9322 4.64307 23.2143C4.64307 24.4963 7.50125 25.5357 11.027 25.5357Z" fill="#203354"/>
<path d="M64.091 37.4087C60.314 21.3781 50.2297 14.82 47.1619 13.1602C46.5969 13.4349 45.9988 13.6358 45.3826 13.758L47.538 15.7695C47.7633 15.9795 47.8959 16.2705 47.9066 16.5783C47.9172 16.8862 47.8051 17.1856 47.5949 17.4108C47.3849 17.6361 47.0939 17.7687 46.786 17.7793C46.4782 17.79 46.1787 17.6779 45.9536 17.4676L42.1627 13.9286H41.7913V17.4108C41.7913 18.0518 41.2716 18.5715 40.6306 18.5715C39.9895 18.5715 39.4699 18.0518 39.4699 17.4108V13.9286H39.0985L35.3076 17.4676C35.0824 17.6779 34.783 17.79 34.4751 17.7793C34.1673 17.7687 33.8763 17.6361 33.6663 17.4108C33.4559 17.1858 33.3436 16.8864 33.354 16.5786C33.3645 16.2708 33.4969 15.9797 33.722 15.7695L35.8659 13.7696C35.2454 13.6489 34.643 13.4488 34.0737 13.1742C31.1877 14.8003 28.5858 16.8855 26.3701 19.348C26.3608 19.3573 26.3526 19.3677 26.3434 19.3782C25.4958 20.3041 24.6984 21.2746 23.9546 22.2858C23.5701 22.7861 22.8563 22.8875 22.3476 22.5142C21.8389 22.1409 21.7216 21.4295 22.0835 20.9126C22.8415 19.8796 23.611 18.9475 24.3748 18.0921V10.176C22.4004 11.1805 20.2051 11.6726 17.9909 11.6072C15.7768 11.6733 13.5816 11.182 11.6069 10.1783V18.5866C16.2765 18.7363 19.7319 20.6758 19.7319 23.2143V40.7121C20.3104 40.6537 20.8916 40.6247 21.473 40.625C26.4351 40.625 30.1784 42.6215 30.1784 45.2679V58.0358H51.2918C52.5047 58.0358 58.7401 57.8036 62.3325 53.2768C65.1414 49.7251 65.7334 44.3869 64.091 37.4087ZM46.4284 37.1429C46.4284 39.7071 44.3497 41.7858 41.7855 41.7858V42.9465C41.7855 43.5875 41.2658 44.1072 40.6248 44.1072C39.9837 44.1072 39.4641 43.5875 39.4641 42.9465V41.7858C36.8999 41.7858 34.8212 39.7071 34.8212 37.1429C34.8212 36.5019 35.3409 35.9822 35.9819 35.9822C36.623 35.9822 37.1426 36.5019 37.1426 37.1429C37.1426 38.425 38.182 39.4643 39.4641 39.4643V34.8215C36.8999 34.8215 34.8212 32.7428 34.8212 30.1786C34.8212 27.6144 36.8999 25.5358 39.4641 25.5358V24.375C39.4641 23.734 39.9837 23.2143 40.6248 23.2143C41.2658 23.2143 41.7855 23.734 41.7855 24.375V25.5358C44.3497 25.5358 46.4284 27.6144 46.4284 30.1786C46.4284 30.8197 45.9087 31.3393 45.2676 31.3393C44.6266 31.3393 44.1069 30.8197 44.1069 30.1786C44.1069 28.8965 43.0676 27.8572 41.7855 27.8572V32.5C44.3497 32.5 46.4284 34.5787 46.4284 37.1429ZM60.5136 51.8294C57.584 55.5275 52.3178 55.7143 51.2918 55.7143C50.6507 55.7143 50.131 55.1947 50.131 54.5536C50.131 53.9126 50.6507 53.3929 51.2918 53.3929C52.131 53.3929 56.4279 53.2478 58.6925 50.3878C59.7633 48.8747 60.3343 47.0647 60.3256 45.211C60.3642 44.5744 60.9034 44.0846 61.5409 44.1072C61.8484 44.1219 62.1375 44.2582 62.3445 44.4862C62.5515 44.7141 62.6595 45.0149 62.6447 45.3225C62.6349 47.6614 61.8893 49.9378 60.5136 51.8294Z" fill="#008AC3"/>
<path d="M37.1431 30.1786C37.1431 31.4607 38.1824 32.5 39.4645 32.5V27.8572C38.1824 27.8572 37.1431 28.8965 37.1431 30.1786Z" fill="#008AC3"/>
<path d="M41.7856 39.4644C43.0677 39.4644 44.1071 38.4251 44.1071 37.143C44.1071 35.8609 43.0677 34.8215 41.7856 34.8215V39.4644Z" fill="#008AC3"/>
<path d="M15.0894 48.4819V60.3572C15.0894 61.2858 17.6348 62.6786 21.4733 62.6786C25.3118 62.6786 27.8572 61.2858 27.8572 60.3572V48.4819C25.8826 49.4856 23.6874 49.9769 21.4733 49.9108C19.2592 49.9769 17.064 49.4856 15.0894 48.4819Z" fill="#203354"/>
<path d="M21.4733 47.5894C24.999 47.5894 27.8572 46.5501 27.8572 45.268C27.8572 43.9859 24.999 42.9465 21.4733 42.9465C17.9475 42.9465 15.0894 43.9859 15.0894 45.268C15.0894 46.5501 17.9475 47.5894 21.4733 47.5894Z" fill="#203354"/>
<path d="M55.3661 8.12513C55.3661 10.0287 53.3001 11.5841 50.7233 11.6073C50.29 11.6081 49.858 11.5614 49.4349 11.468C49.3732 11.5458 49.2986 11.6126 49.2144 11.6653C49.4001 11.7814 49.609 11.9091 49.8295 12.0367C50.5376 12.501 51.3617 13.0698 52.267 13.7778C52.3599 13.8474 52.4411 13.9171 52.534 13.9983C58.3144 14.4278 60.1483 16.8421 60.2063 16.9117C60.4251 17.2272 60.7858 17.414 61.1697 17.4108C61.3979 17.4135 61.6212 17.3445 61.8081 17.2135C62.3377 16.8593 62.4828 16.1444 62.1331 15.6117C62.0402 15.4724 60.4385 13.1742 55.7608 12.118C56.9549 11.1319 57.6587 9.67346 57.6876 8.12513C57.5287 5.54905 55.7372 3.36458 53.242 2.70459C53.2401 2.78244 53.2323 2.86003 53.2188 2.93673C53.1295 3.6443 52.9977 4.34587 52.8242 5.03763C54.2264 5.44522 55.2354 6.67073 55.3661 8.12513Z" fill="#008AC3"/>
</g>
<defs>
<clipPath id="clip0_113_2620">
<rect width="65" height="65" fill="white"/>
</clipPath>
</defs>
</svg>
