<svg width="65" height="65" viewBox="0 0 65 65" fill="none" xmlns="http://www.w3.org/2000/svg">
<g clip-path="url(#clip0_113_2669)">
<path d="M44.1792 34.4038C43.1284 34.4038 42.2749 35.2573 42.2749 36.3081C42.2749 37.3589 43.1284 38.2124 44.1792 38.2124C45.2295 38.2124 46.0835 37.3589 46.0835 36.3081C46.0835 35.2573 45.23 34.4038 44.1792 34.4038Z" fill="#203354"/>
<path d="M44.1792 24.8823C37.8787 24.8823 32.7534 30.0076 32.7534 36.3081C32.7534 42.6087 37.8787 47.7339 44.1792 47.7339C50.4798 47.7339 55.6045 42.6087 55.6045 36.3081C55.6045 30.0076 50.4798 24.8823 44.1792 24.8823ZM44.1792 42.021C41.0287 42.021 38.4663 39.4582 38.4663 36.3081C38.4663 33.1581 41.0287 30.5952 44.1792 30.5952C47.3292 30.5952 49.8921 33.1581 49.8921 36.3081C49.8921 39.4582 47.3292 42.021 44.1792 42.021Z" fill="#203354"/>
<path d="M34.6577 48.1035V63.0949C34.6577 63.8651 35.1209 64.5603 35.833 64.8544C36.5471 65.15 37.3614 64.9883 37.9084 64.4413L44.1792 58.1705L50.45 64.4413C50.8145 64.8058 51.3015 64.9992 51.7959 64.9992C52.0419 64.9992 52.2889 64.9531 52.5249 64.8544C53.2375 64.5603 53.7002 63.8651 53.7002 63.0949V48.1035C51.0838 50.2206 47.7989 51.5427 44.1792 51.5427C40.5591 51.5427 37.2746 50.2206 34.6577 48.1035Z" fill="#203354"/>
<path d="M63.2218 0H2.03125C0.978433 0 0.126953 0.85148 0.126953 1.9043V43.9254C0.126953 44.9777 0.978433 45.8297 2.03125 45.8297H32.384C30.267 43.2127 28.9449 39.9283 28.9449 36.3082C28.9449 27.9079 35.779 21.0738 44.1793 21.0738C52.579 21.0738 59.4132 27.9079 59.4132 36.3082C59.4132 39.9283 58.0916 43.2127 55.9745 45.8297H63.2218C64.2746 45.8297 65.1261 44.9777 65.1261 43.9254V1.9043C65.1261 0.85148 64.2746 0 63.2218 0ZM21.2007 7.74415H44.1793C45.2316 7.74415 46.0836 8.59563 46.0836 9.64845C46.0836 10.7008 45.2316 11.5528 44.1793 11.5528H21.2007C20.1484 11.5528 19.2964 10.7008 19.2964 9.64845C19.2964 8.59563 20.1484 7.74415 21.2007 7.74415ZM25.1363 34.4039H9.64845C8.59563 34.4039 7.74415 33.5524 7.74415 32.4996C7.74415 31.4472 8.59563 30.5953 9.64845 30.5953H25.1363C26.1891 30.5953 27.0406 31.4472 27.0406 32.4996C27.0406 33.5524 26.1891 34.4039 25.1363 34.4039ZM28.9449 26.7867H9.64845C8.59563 26.7867 7.74415 25.9352 7.74415 24.8824C7.74415 23.83 8.59563 22.9781 9.64845 22.9781H28.9449C29.9977 22.9781 30.8492 23.83 30.8492 24.8824C30.8492 25.9352 29.9977 26.7867 28.9449 26.7867ZM55.6046 19.1695C38.9142 19.1695 25.8479 19.1695 9.64845 19.1695C8.59563 19.1695 7.74415 18.318 7.74415 17.2657C7.74415 16.2128 8.59563 15.3614 9.64845 15.3614H55.6046C56.6574 15.3614 57.5089 16.2128 57.5089 17.2657C57.5089 18.318 56.6574 19.1695 55.6046 19.1695Z" fill="#008AC3"/>
</g>
<defs>
<clipPath id="clip0_113_2669">
<rect width="65" height="65" fill="white"/>
</clipPath>
</defs>
</svg>
