<svg width="17" height="18" viewBox="0 0 17 18" fill="none" xmlns="http://www.w3.org/2000/svg">
<g clip-path="url(#clip0_413_745)">
<path d="M7.85738 1.24232L0.73891 16.6657C0.627387 16.9113 0.693826 17.2043 0.905008 17.3751C1.11619 17.5472 1.41635 17.5531 1.63346 17.3894L8.39601 12.3175L15.1586 17.3894C15.3757 17.5531 15.677 17.5472 15.887 17.3763C16.0306 17.2613 16.1077 17.0892 16.1077 16.9148C16.1077 16.8306 16.0899 16.7463 16.0531 16.6669L8.93464 1.24351C8.83736 1.03233 8.62736 0.898264 8.39601 0.898264C8.16466 0.898264 7.95467 1.03233 7.85738 1.24232Z" fill="white"/>
</g>
<defs>
<clipPath id="clip0_413_745">
<rect width="16.6102" height="16.6102" fill="white" transform="matrix(0 -1 1 0 0.0914917 17.5084)"/>
</clipPath>
</defs>
</svg>
