<svg width="856" height="572" viewBox="0 0 856 572" fill="none" xmlns="http://www.w3.org/2000/svg">
<path d="M770 360.5L763.564 367.018C756.886 374.303 740.626 377.32 731.097 375.171C727.207 374.3 723.262 376.337 721.646 380.06L717.81 388.894C715.209 394.885 711.14 400.086 706 404L652 443.5C634.168 457.079 630.91 458.602 609 462.5C609 462.5 594.5 464.5 585 464C563 464 536.296 447.012 533 439C524.166 417.552 508 375 479 357.5C451 343.5 417 354.5 406.975 380.713C406.975 380.713 403.593 390.651 401.5 393C388.5 404.5 373.5 389.5 367.5 386L353 376.5C345.5 372.5 353.385 359.5 351.5 354.5C350 350.522 346.683 348.84 342.809 347.267L281.126 322.185C277.572 320.739 273.674 320.459 269.956 321.386L264.403 322.768C261.114 323.583 257.662 323.311 254.53 321.985L218.404 306.68C216.982 306.081 216.451 304.308 217.287 302.99L218.693 300.785C220.068 298.628 219.06 295.72 216.67 294.922L149.723 275.073C142.599 272.701 136.889 267.165 134.233 260C129.281 246.636 110.421 224.459 98.7357 214.466C97.0017 212.988 97.486 210.152 99.6262 209.417L105.109 207.548C107.25 206.821 107.757 203.954 106 202.5L54.5 179.5C50.4852 176.177 49.8684 173.517 50.3683 168.26C50.9541 162.126 56.3984 159.447 62.1004 157.458L257.802 99.9999C265 98.9999 265 92.4999 251 89.9999C241 88.2142 236.5 92.4999 228.5 93.9999" stroke="url(#paint0_linear_451_1135)" stroke-width="5" stroke-miterlimit="10"/>
<defs>
<linearGradient id="paint0_linear_451_1135" x1="410.11" y1="89.572" x2="410.11" y2="464.08" gradientUnits="userSpaceOnUse">
<stop stop-color="#FF382C"/>
<stop offset="1" stop-color="#FF8F27"/>
</linearGradient>
</defs>
</svg>
