<svg width="856" height="572" viewBox="0 0 856 572" fill="none" xmlns="http://www.w3.org/2000/svg">
<path d="M779.352 355.9L772.914 362.286C766.234 369.422 756.297 372.506 746.766 370.401C742.875 369.548 738.93 371.543 737.312 375.19L733.477 383.845C730.875 389.714 726.805 394.808 721.664 398.642L673.258 434.733C655.422 448.036 634.781 457.176 612.867 460.995C611.961 461.152 611.062 461.3 610.172 461.441C601.773 462.725 593.586 458.123 590.289 450.274C581.453 429.263 560.055 385.989 527.453 366.731C475.836 336.243 441.297 344.882 422.016 365.408C418.758 368.882 416.133 371.715 414.039 374.016C409.219 379.306 401.469 380.714 395.094 377.475L381.695 370.667C378.398 368.992 375.836 366.151 374.508 362.693C373.008 358.796 369.953 355.697 366.078 354.155L304.383 329.584C300.828 328.167 296.93 327.893 293.211 328.801L287.656 330.155C284.367 330.953 280.914 330.687 277.781 329.388L241.648 314.395C240.227 313.808 239.695 312.07 240.531 310.779L241.938 308.619C243.313 306.507 242.305 303.658 239.914 302.876L198.102 289.228C190.977 286.904 185.266 281.481 182.609 274.462C177.656 261.37 168.258 240.006 156.57 230.217C154.836 228.769 155.32 225.991 157.461 225.271L162.945 223.44C165.086 222.728 165.594 219.919 163.836 218.494L109.922 174.852C105.906 171.597 103.789 166.542 104.289 161.392C104.875 155.383 108.914 150.273 114.617 148.324L256.945 94.3657C258.875 93.7084 259.125 91.0791 257.352 90.0696C256.805 89.7566 256.148 89.6783 255.539 89.8427L242.805 93.411C240.539 94.0449 238.188 92.7537 237.5 90.5C236.828 88.3089 234.57 87.0177 232.344 87.5498L229.469 88.2463" stroke="url(#paint0_linear_443_1119)" stroke-width="5" stroke-miterlimit="10"/>
<defs>
<linearGradient id="paint0_linear_443_1119" x1="441.784" y1="87.4303" x2="441.784" y2="461.655" gradientUnits="userSpaceOnUse">
<stop stop-color="#FF382C"/>
<stop offset="1" stop-color="#FF8F27"/>
</linearGradient>
</defs>
</svg>
