<svg width="20" height="20" viewBox="0 0 20 20" fill="none" xmlns="http://www.w3.org/2000/svg">
<path d="M11.5622 12.1064C11.0972 12.4164 10.557 12.5803 10.0001 12.5803C9.44317 12.5803 8.90298 12.4164 8.43793 12.1064L0.778267 6.99978C0.735771 6.97145 0.69437 6.94191 0.653809 6.91154V15.2793C0.653809 16.2386 1.43236 17 2.37458 17H17.6255C18.5849 17 19.3463 16.2215 19.3463 15.2793V6.9115C19.3057 6.94195 19.2642 6.97156 19.2216 6.99992L11.5622 12.1064Z" fill="#AEAEAE"/>
<path d="M1.38581 6.08836L9.04547 11.195C9.33543 11.3883 9.66773 11.4849 10 11.4849C10.3324 11.4849 10.6647 11.3883 10.9547 11.195L18.6143 6.08836C19.0727 5.78296 19.3463 5.27184 19.3463 4.72019C19.3463 3.77165 18.5746 3 17.6261 3H2.374C1.4255 3.00004 0.653809 3.77169 0.653809 4.7211C0.653809 5.27184 0.927479 5.78296 1.38581 6.08836Z" fill="#AEAEAE"/>
</svg>
