<svg width="13" height="13" viewBox="0 0 13 13" fill="none" xmlns="http://www.w3.org/2000/svg">
<g clip-path="url(#clip0_413_733)">
<path d="M7.58644 7.96491C7.26301 8.18053 6.88733 8.2945 6.5 8.2945C6.11269 8.2945 5.73701 8.18053 5.41359 7.96491L0.0865566 4.41345C0.0570019 4.39374 0.028209 4.3732 0 4.35208V10.1715C0 10.8387 0.541455 11.3683 1.19674 11.3683H11.8032C12.4705 11.3683 13 10.8268 13 10.1715V4.35205C12.9717 4.37323 12.9429 4.39382 12.9132 4.41355L7.58644 7.96491Z" fill="#AEAEAE"/>
<path d="M0.509082 3.77956L5.83611 7.33105C6.03776 7.46549 6.26887 7.5327 6.49997 7.5327C6.73111 7.5327 6.96224 7.46546 7.16389 7.33105L12.4909 3.77956C12.8097 3.56717 13 3.2117 13 2.82804C13 2.16837 12.4633 1.63171 11.8037 1.63171H1.19633C0.536682 1.63174 0 2.1684 0 2.82868C0 3.2117 0.190328 3.56717 0.509082 3.77956Z" fill="#AEAEAE"/>
</g>
<defs>
<clipPath id="clip0_413_733">
<rect width="13" height="13" fill="white"/>
</clipPath>
</defs>
</svg>
