<svg width="35" height="35" viewBox="0 0 35 35" fill="none" xmlns="http://www.w3.org/2000/svg">
<path d="M29.5317 26.2496H16.4058C14.5935 26.2496 13.1243 27.7187 13.1243 29.5309C13.1243 31.3431 14.5935 32.8121 16.4058 32.8121H29.5317C31.344 32.8121 32.8132 31.3431 32.8132 29.5309C32.8132 27.7187 31.344 26.2496 29.5317 26.2496ZM16.4058 31.7184C15.1976 31.7184 14.2181 30.739 14.2181 29.5309C14.2181 28.3227 15.1976 27.3434 16.4058 27.3434C17.614 27.3434 18.5934 28.3227 18.5934 29.5309C18.5934 30.739 17.614 31.7184 16.4058 31.7184ZM22.9688 31.7184C21.7606 31.7184 20.7811 30.739 20.7811 29.5309C20.7811 28.3227 21.7606 27.3434 22.9688 27.3434C24.1769 27.3434 25.1564 28.3227 25.1564 29.5309C25.1564 30.739 24.1769 31.7184 22.9688 31.7184ZM29.5317 31.7184C28.3235 31.7184 27.3441 30.739 27.3441 29.5309C27.3441 28.3227 28.3235 27.3434 29.5317 27.3434C30.7399 27.3434 31.7194 28.3227 31.7194 29.5309C31.7194 30.739 30.7399 31.7184 29.5317 31.7184Z" fill="#ADADAD"/>
<path d="M7.65552 12.0309C7.0515 12.0309 6.56177 12.5201 6.56177 13.1246C6.56177 13.7281 6.07097 14.2184 5.46802 14.2184C4.86507 14.2184 4.37427 13.7281 4.37427 13.1246C4.37427 12.5211 4.86507 12.0309 5.46802 12.0309C6.07204 12.0309 6.56177 11.5417 6.56177 10.9371V6.71019L14.218 17.4996L16.7336 14.2184L9.39741 6.03014L26.2493 12.7711V19.6871H24.0612V15.3121C24.0612 14.7076 23.5714 14.2184 22.9674 14.2184H18.5921C18.2475 14.2184 17.9234 14.3807 17.7172 14.6563L14.4357 19.0313C14.2937 19.2204 14.2167 19.45 14.2167 19.6871V24.0621C14.2167 24.6667 14.7065 25.1559 15.3106 25.1559H30.6242C31.2282 25.1559 31.718 24.6667 31.718 24.0621V20.7809C31.718 20.1763 31.2282 19.6871 30.6242 19.6871H28.4368V12.0309C28.4368 11.5833 28.1644 11.1817 27.7489 11.0151L5.87444 2.2651C5.53798 2.13158 5.15559 2.17324 4.85492 2.37511C4.55424 2.57912 4.37427 2.91772 4.37427 3.28088V10.0303C3.10107 10.4821 2.18677 11.6987 2.18677 13.1246C2.18677 14.934 3.65863 16.4059 5.46802 16.4059C7.2774 16.4059 8.74927 14.934 8.74927 13.1246C8.74927 12.5201 8.25954 12.0309 7.65552 12.0309ZM22.9674 19.6871H16.4044C15.9538 19.6871 15.6965 19.1726 15.9669 18.8121L18.5921 15.3121H22.9674V19.6871Z" fill="#ADADAD"/>
</svg>
