<svg width="15" height="15" viewBox="0 0 15 15" fill="none" xmlns="http://www.w3.org/2000/svg">
<path fill-rule="evenodd" clip-rule="evenodd" d="M7.5 0.78125C4.91313 0.78125 2.8125 2.88188 2.8125 5.46875C2.8125 6.68188 3.2725 7.89812 3.90812 8.98563C4.82625 10.5556 6.10437 11.8538 6.7625 12.4694C6.76437 12.4706 6.76562 12.4719 6.76687 12.4731C7.1825 12.8519 7.81813 12.8519 8.23313 12.4725C8.23438 12.4712 8.23562 12.4706 8.23688 12.4694C8.89563 11.8538 10.1737 10.5556 11.0919 8.98563C11.7275 7.89812 12.1875 6.68188 12.1875 5.46875C12.1875 2.88188 10.0869 0.78125 7.5 0.78125ZM7.5 3.4375C6.465 3.4375 5.625 4.2775 5.625 5.3125C5.625 6.3475 6.465 7.1875 7.5 7.1875C8.535 7.1875 9.375 6.3475 9.375 5.3125C9.375 4.2775 8.535 3.4375 7.5 3.4375Z" fill="#AEAEAE"/>
<path fill-rule="evenodd" clip-rule="evenodd" d="M3.75 14.2188H11.25C11.5087 14.2188 11.7188 14.0088 11.7188 13.75C11.7188 13.4912 11.5087 13.2812 11.25 13.2812H3.75C3.49125 13.2812 3.28125 13.4912 3.28125 13.75C3.28125 14.0088 3.49125 14.2188 3.75 14.2188Z" fill="#AEAEAE"/>
</svg>
