<svg width="20" height="20" viewBox="0 0 20 20" fill="none" xmlns="http://www.w3.org/2000/svg">
<path d="M16.875 2.5H3.125C1.40203 2.5 0 3.90203 0 5.625V14.375C0 16.098 1.40203 17.5 3.125 17.5H16.875C18.598 17.5 20 16.098 20 14.375V5.625C20 3.90203 18.598 2.5 16.875 2.5ZM18.75 14.375C18.75 15.4089 17.9089 16.25 16.875 16.25H3.125C2.09109 16.25 1.25 15.4089 1.25 14.375V5.625C1.25 4.59109 2.09109 3.75 3.125 3.75H16.875C17.9089 3.75 18.75 4.59109 18.75 5.625V14.375ZM17.3169 6.06687L13.3837 10L17.3169 13.9331C17.5611 14.1773 17.5611 14.5728 17.3169 14.8169C17.1948 14.9389 17.0348 15 16.875 15C16.7152 15 16.5552 14.9389 16.4331 14.8169L12.5 10.8837L10.4419 12.9419C10.3198 13.0639 10.1598 13.125 10 13.125C9.84016 13.125 9.68016 13.0639 9.55813 12.9419L7.5 10.8837L3.56687 14.8169C3.44484 14.9389 3.28484 15 3.125 15C2.96516 15 2.80516 14.9389 2.68313 14.8169C2.43891 14.5727 2.43891 14.1772 2.68313 13.9331L6.61625 10L2.68313 6.06687C2.43891 5.82266 2.43891 5.42719 2.68313 5.18313C2.92734 4.93906 3.32281 4.93891 3.56687 5.18313L10 11.6163L16.4331 5.18313C16.6773 4.93891 17.0728 4.93891 17.3169 5.18313C17.5609 5.42734 17.5611 5.82281 17.3169 6.06687Z" fill="white"/>
</svg>
