<svg width="35" height="35" viewBox="0 0 35 35" fill="none" xmlns="http://www.w3.org/2000/svg">
<path d="M30.3365 10.3354C30.0915 7.94068 29.7013 6.07612 29.084 5.34323C26.5387 2.32983 8.70918 2.10931 6.68484 5.34323C6.18965 6.13554 5.84235 7.9935 5.60928 10.3394C4.85725 10.4279 4.27161 11.061 4.27161 11.8362V14.7697C4.27161 15.422 4.68493 15.972 5.26199 16.1866C5.12532 20.8071 5.23624 25.6276 5.44092 28.025C5.44092 29.8757 6.68418 29.5686 6.68418 29.5686H7.84953V31.5666C7.84953 32.3589 8.66626 33 9.67249 33C10.68 33 11.4968 32.3589 11.4968 31.5666V29.5686H25.0544V31.5666C25.0544 32.3589 25.8705 33 26.8781 33C27.8843 33 28.701 32.3589 28.701 31.5666V29.5686H29.084C29.084 29.5686 30.5471 29.7694 30.6409 28.8978C30.6409 26.507 30.7914 21.2085 30.6673 16.2071C31.2807 16.0149 31.7283 15.4498 31.7283 14.7697V11.8362C31.729 11.0426 31.1149 10.3988 30.3365 10.3354ZM11.0392 5.77306H24.7296V7.84428H11.0392V5.77306ZM11.2347 27.2096C10.1598 27.2096 9.28888 26.338 9.28888 25.2631C9.28888 24.1889 10.1598 23.318 11.2347 23.318C12.3095 23.318 13.1811 24.1889 13.1811 25.2631C13.1811 26.338 12.3102 27.2096 11.2347 27.2096ZM24.6563 27.2096C23.5821 27.2096 22.7092 26.338 22.7092 25.2631C22.7092 24.1889 23.5814 23.318 24.6563 23.318C25.7312 23.318 26.6021 24.1889 26.6021 25.2631C26.6027 26.338 25.7312 27.2096 24.6563 27.2096ZM27.1303 18.6923H8.63853V8.99312H27.1303V18.6923Z" fill="#ADADAD"/>
</svg>
