<svg width="15" height="15" viewBox="0 0 15 15" fill="none" xmlns="http://www.w3.org/2000/svg">
<path d="M4.7915 9.125V13.4583C4.7915 13.602 4.84857 13.7398 4.95015 13.8414C5.05174 13.9429 5.18951 14 5.33317 14H9.6665C9.81016 14 9.94794 13.9429 10.0495 13.8414C10.1511 13.7398 10.2082 13.602 10.2082 13.4583V9.125H4.7915ZM8.58317 12.9167H6.4165C6.27284 12.9167 6.13507 12.8596 6.03349 12.758C5.93191 12.6564 5.87484 12.5187 5.87484 12.375C5.87484 12.2313 5.93191 12.0936 6.03349 11.992C6.13507 11.8904 6.27284 11.8333 6.4165 11.8333H8.58317C8.72683 11.8333 8.8646 11.8904 8.96619 11.992C9.06777 12.0936 9.12484 12.2313 9.12484 12.375C9.12484 12.5187 9.06777 12.6564 8.96619 12.758C8.8646 12.8596 8.72683 12.9167 8.58317 12.9167ZM8.58317 11.2917H6.4165C6.27284 11.2917 6.13507 11.2346 6.03349 11.133C5.93191 11.0314 5.87484 10.8937 5.87484 10.75C5.87484 10.6063 5.93191 10.4686 6.03349 10.367C6.13507 10.2654 6.27284 10.2083 6.4165 10.2083H8.58317C8.72683 10.2083 8.8646 10.2654 8.96619 10.367C9.06777 10.4686 9.12484 10.6063 9.12484 10.75C9.12484 10.8937 9.06777 11.0314 8.96619 11.133C8.8646 11.2346 8.72683 11.2917 8.58317 11.2917Z" fill="#AEAEAE"/>
<path d="M12.9166 4.25H2.08325C1.86978 4.24972 1.65834 4.29155 1.46106 4.37312C1.26377 4.45468 1.08452 4.57436 0.933569 4.72532C0.782617 4.87627 0.662931 5.05552 0.581368 5.2528C0.499805 5.45009 0.457968 5.66152 0.458253 5.875V10.2083C0.459511 10.6389 0.63112 11.0515 0.935594 11.356C1.24007 11.6605 1.65266 11.8321 2.08325 11.8333H3.70825V8.58333C3.70867 8.4398 3.76587 8.30227 3.86736 8.20078C3.96885 8.09928 4.10639 8.04208 4.24992 8.04167H10.7499C10.8935 8.04208 11.031 8.09928 11.1325 8.20078C11.234 8.30227 11.2912 8.4398 11.2916 8.58333V11.8333H12.9166C13.3472 11.8321 13.7598 11.6605 14.0642 11.356C14.3687 11.0515 14.5403 10.6389 14.5416 10.2083V5.875C14.5419 5.66152 14.5 5.45009 14.4185 5.2528C14.3369 5.05552 14.2172 4.87627 14.0663 4.72532C13.9153 4.57436 13.7361 4.45468 13.5388 4.37312C13.3415 4.29155 13.1301 4.24972 12.9166 4.25ZM11.8333 6.95833C11.7619 6.95914 11.6911 6.94568 11.625 6.91874C11.5589 6.89181 11.4989 6.85194 11.4484 6.80148C11.398 6.75102 11.3581 6.69099 11.3312 6.6249C11.3042 6.55882 11.2908 6.48802 11.2916 6.41667C11.2916 6.30954 11.3234 6.20481 11.3829 6.11573C11.4424 6.02666 11.527 5.95723 11.626 5.91623C11.7249 5.87524 11.8339 5.86451 11.9389 5.88541C12.044 5.90631 12.1405 5.9579 12.2163 6.03365C12.292 6.10941 12.3436 6.20592 12.3645 6.31099C12.3854 6.41607 12.3747 6.52498 12.3337 6.62396C12.2927 6.72293 12.2233 6.80753 12.1342 6.86705C12.0451 6.92657 11.9404 6.95833 11.8333 6.95833Z" fill="#AEAEAE"/>
<path d="M11.2916 1.54167V3.70833H3.70825V1.54167C3.70867 1.39814 3.76587 1.2606 3.86736 1.15911C3.96885 1.05762 4.10639 1.00041 4.24992 1H10.7499C10.8935 1.00041 11.031 1.05762 11.1325 1.15911C11.234 1.2606 11.2912 1.39814 11.2916 1.54167Z" fill="#AEAEAE"/>
</svg>
