<svg width="15" height="15" viewBox="0 0 15 15" fill="none" xmlns="http://www.w3.org/2000/svg">
<g clip-path="url(#clip0_237_1127)">
<path d="M14.5312 9.37499C14.2725 9.37499 14.0625 9.16499 14.0625 8.90624C14.0625 7.09686 12.5906 5.62499 10.7812 5.62499H6.25V7.65624C6.25 8.06874 5.75375 8.27749 5.4575 7.99499L2.02 4.71374C1.9275 4.62561 1.875 4.50311 1.875 4.37499C1.875 4.24686 1.9275 4.12436 2.02 4.03624L5.4575 0.754987C5.755 0.471237 6.25 0.682487 6.25 1.09374V3.12499H10.1562C12.8269 3.12499 15 5.29811 15 7.96874V8.90624C15 9.16499 14.79 9.37499 14.5312 9.37499Z" fill="#022257"/>
<path d="M8.75 13.9062V11.875H4.84375C2.17313 11.875 0 9.70187 0 7.03125V6.09375C0 5.835 0.21 5.625 0.46875 5.625C0.7275 5.625 0.9375 5.835 0.9375 6.09375C0.9375 7.90313 2.40937 9.375 4.21875 9.375H8.75V7.34375C8.75 6.93313 9.24438 6.72 9.5425 7.005L12.98 10.2863C13.0725 10.3744 13.125 10.4969 13.125 10.625C13.125 10.7531 13.0725 10.8756 12.98 10.9637L9.5425 14.245C9.24438 14.5287 8.75 14.3175 8.75 13.9062Z" fill="#022257"/>
</g>
<defs>
<clipPath id="clip0_237_1127">
<rect width="15" height="15" fill="white"/>
</clipPath>
</defs>
</svg>
