<svg width="35" height="35" viewBox="0 0 35 35" fill="none" xmlns="http://www.w3.org/2000/svg">
<path d="M33.7873 18.8822C33.5412 16.1198 33.1358 15.5818 32.9827 15.3795C32.6307 14.9119 32.0674 14.6063 31.4713 14.2857C31.4376 14.2679 31.4085 14.2425 31.3863 14.2115C31.3641 14.1805 31.3494 14.1448 31.3433 14.1071C31.3373 14.0695 31.3401 14.0309 31.3515 13.9945C31.3629 13.9582 31.3826 13.9249 31.4091 13.8975C31.5195 13.7855 31.6043 13.651 31.6578 13.5031C31.7112 13.3553 31.732 13.1976 31.7187 13.0409C31.693 12.7631 31.5639 12.5051 31.3568 12.3181C31.1498 12.1311 30.8801 12.0287 30.6011 12.0312H29.5347C29.489 12.0315 29.4433 12.0345 29.3979 12.0401C29.3668 12.0266 29.3346 12.0159 29.3016 12.008C28.6699 10.6729 27.8052 8.84502 26.0128 7.95293C23.3543 6.63086 18.457 6.5625 17.5 6.5625C16.543 6.5625 11.6457 6.63086 8.99063 7.95088C7.19824 8.84297 6.3335 10.6709 5.70186 12.006L5.69639 12.0169C5.66488 12.0213 5.63395 12.0291 5.6041 12.0401C5.55874 12.0345 5.51309 12.0315 5.46738 12.0312H4.39893C4.11995 12.0287 3.85019 12.1311 3.64317 12.3181C3.43614 12.5051 3.30696 12.7631 3.28125 13.0409C3.26911 13.1972 3.29086 13.3543 3.34501 13.5014C3.39916 13.6485 3.48444 13.7822 3.59502 13.8934C3.62147 13.9208 3.64118 13.9541 3.6526 13.9904C3.66401 14.0268 3.66681 14.0654 3.66077 14.103C3.65474 14.1407 3.64004 14.1764 3.61784 14.2074C3.59563 14.2384 3.56652 14.2638 3.53281 14.2816C2.93672 14.6043 2.3707 14.9099 2.02139 15.3754C1.86826 15.5805 1.46358 16.1157 1.2168 18.8781C1.08008 20.4326 1.05957 22.0418 1.1669 23.0781C1.3918 25.2314 1.81358 26.533 1.83135 26.587C1.89607 26.7835 2.01521 26.9577 2.17493 27.0892C2.33465 27.2207 2.5284 27.3043 2.73369 27.3301V27.3438C2.73369 27.6338 2.84893 27.912 3.05404 28.1171C3.25916 28.3223 3.53736 28.4375 3.82744 28.4375H7.65557C7.94565 28.4375 8.22385 28.3223 8.42897 28.1171C8.63408 27.912 8.74932 27.6338 8.74932 27.3438C9.33789 27.3438 9.74736 27.2385 10.1814 27.1264C10.8082 26.9575 11.4487 26.8452 12.0955 26.7907C14.1812 26.5918 16.2552 26.5234 17.5 26.5234C18.7195 26.5234 20.8852 26.5918 22.9742 26.7907C23.6235 26.8453 24.2667 26.9581 24.8958 27.1277C25.3114 27.2344 25.7059 27.3328 26.252 27.3431C26.252 27.6331 26.3673 27.9113 26.5724 28.1165C26.7775 28.3216 27.0557 28.4368 27.3458 28.4368H31.1739C31.464 28.4368 31.7422 28.3216 31.9473 28.1165C32.1524 27.9113 32.2677 27.6331 32.2677 27.3431V27.3349C32.4735 27.3095 32.6678 27.2262 32.828 27.0947C32.9883 26.9631 33.1078 26.7887 33.1728 26.5918C33.1905 26.5378 33.6123 25.2362 33.8372 23.0829C33.9445 22.0459 33.9254 20.4395 33.7873 18.8822ZM7.67881 12.9411C8.22568 11.779 8.85117 10.4638 9.96475 9.90938C11.5739 9.1082 14.9092 8.74727 17.5 8.74727C20.0908 8.74727 23.4261 9.10547 25.0353 9.90938C26.1488 10.4638 26.7716 11.7797 27.3212 12.9411L27.3895 13.0895C27.4295 13.1739 27.4472 13.2672 27.4409 13.3604C27.4346 13.4536 27.4045 13.5437 27.3535 13.6219C27.3025 13.7002 27.2323 13.7641 27.1495 13.8076C27.0668 13.851 26.9744 13.8726 26.881 13.8701C24.6094 13.8086 19.8242 13.6117 17.5 13.6117C15.1758 13.6117 10.3906 13.8134 8.11563 13.8749C8.02223 13.8773 7.92976 13.8558 7.84704 13.8124C7.76432 13.7689 7.69412 13.705 7.64312 13.6267C7.59211 13.5485 7.56202 13.4584 7.5557 13.3652C7.54939 13.272 7.56706 13.1787 7.60703 13.0942C7.63096 13.0437 7.65625 12.9924 7.67881 12.9411ZM8.49434 18.3846C7.31842 18.5261 6.13499 18.596 4.95059 18.5938C4.22598 18.5938 3.47881 18.3887 3.34004 17.7434C3.24502 17.3093 3.25527 17.0652 3.30654 16.8198C3.34961 16.6113 3.41797 16.4596 3.75977 16.4062C4.64844 16.2695 5.14541 16.4411 6.6001 16.8697C7.56465 17.1534 8.26055 17.5314 8.65703 17.8309C8.85596 17.9785 8.75 18.3641 8.49434 18.3846ZM23.6277 23.99C22.7281 24.0926 20.9289 24.055 17.5205 24.055C14.1121 24.055 12.3136 24.0926 11.414 23.99C10.4856 23.8868 9.30234 23.0091 10.1104 22.2271C10.6483 21.7116 11.9034 21.3261 13.5748 21.1094C15.2462 20.8927 15.9537 20.7812 17.5137 20.7812C19.0736 20.7812 19.7094 20.8496 21.4525 21.1101C23.1957 21.3705 24.513 21.7608 24.917 22.2277C25.6539 23.0645 24.5554 23.8813 23.6277 23.9941V23.99ZM31.66 17.7427C31.5232 18.3907 30.7713 18.5931 30.0494 18.5931C28.8423 18.5933 27.6363 18.5235 26.4373 18.3839C26.2281 18.3641 26.1311 17.997 26.343 17.8302C26.7333 17.5232 27.4367 17.1527 28.3999 16.869C29.8546 16.4404 30.6934 16.2688 31.4139 16.4117C31.5896 16.4466 31.6825 16.6353 31.6935 16.7535C31.7417 17.0828 31.7303 17.4181 31.66 17.7434V17.7427Z" fill="#ADADAD"/>
</svg>
