<svg width="18" height="18" viewBox="0 0 18 18" fill="none" xmlns="http://www.w3.org/2000/svg">
<path d="M13.8228 12.8891C14.9509 11.555 15.6419 9.84003 15.6724 7.96735C15.743 3.68343 12.2275 0.0580783 7.94357 0.00071281C3.53775 -0.0581623 -0.0581623 3.53775 0.00071281 7.94357C0.0580783 12.2279 3.68343 15.743 7.96773 15.6724C9.84003 15.6415 11.5553 14.9505 12.8895 13.8228L16.8734 17.8067C17.1311 18.0644 17.5493 18.0644 17.8071 17.8067C18.0648 17.5489 18.0648 17.1307 17.8071 16.873L13.8232 12.8891H13.8228ZM12.8853 11.9516C12.6064 12.2935 12.2935 12.6064 11.9516 12.8853C10.8288 13.8024 9.39583 14.3527 7.83677 14.3527C4.24388 14.3527 1.32087 11.4297 1.32087 7.83677C1.32087 4.24388 4.24388 1.32087 7.83677 1.32087C11.4297 1.32087 14.3527 4.24388 14.3527 7.83677C14.3527 9.39583 13.8024 10.8288 12.8853 11.9516Z" fill="#203354"/>
</svg>
