<svg width="15" height="15" viewBox="0 0 15 15" fill="none" xmlns="http://www.w3.org/2000/svg">
<path d="M12.8162 11.0762L10.9132 9.17329C10.8473 9.10736 10.7632 9.06258 10.6717 9.0447C10.5802 9.02681 10.4854 9.03662 10.3995 9.07287L8.39628 9.91827L5.08172 6.60374L5.92713 4.60051C5.96339 4.5146 5.9732 4.41983 5.95531 4.32831C5.93742 4.23679 5.89265 4.15269 5.82671 4.08676L3.92375 2.18381C3.88023 2.14028 3.82855 2.10575 3.77168 2.08219C3.7148 2.05863 3.65385 2.04651 3.59229 2.04651C3.53073 2.04651 3.46977 2.05863 3.4129 2.08219C3.35603 2.10575 3.30435 2.14028 3.26082 2.18381L1.96132 3.48333C0.473557 4.97112 2.16997 7.65934 4.75534 10.2447C7.3407 12.8301 10.0289 14.5265 11.5167 13.0387L12.8162 11.7392C12.9041 11.6513 12.9535 11.532 12.9535 11.4077C12.9535 11.2834 12.9041 11.1642 12.8162 11.0762Z" fill="#AEAEAE"/>
</svg>
