<svg width="430" height="142" viewBox="0 0 430 142" fill="none" xmlns="http://www.w3.org/2000/svg">
<path d="M99.1293 12.0371V140.872H77.3096V87.4569C77.3096 74.7929 78.1874 62.0662 79.943 49.2768L58.8757 107.581H40.0655L18.8101 49.2768C20.6911 60.9377 21.6316 73.6645 21.6316 87.4569V140.872H0V12.0371H24.0769L49.4706 83.5073L74.8643 12.0371H99.1293Z" fill="#F3F3F3"/>
<path d="M126.924 110.967V59.4331C126.924 50.1545 129.683 42.8821 135.201 37.6159C140.844 32.2243 149.308 29.5285 160.594 29.5285C171.88 29.5285 180.157 32.2243 185.424 37.6159C190.816 42.8821 193.512 50.1545 193.512 59.4331V95.5444H148.932V109.274C148.932 113.788 150.249 117.048 152.882 119.054C155.516 121.06 160.532 122.064 167.93 122.064C175.329 122.064 182.916 120.872 190.69 118.49V138.615C182.916 140.872 174.263 142 164.733 142C139.527 142 126.924 131.656 126.924 110.967ZM148.932 77.8649H172.445V59.6212C172.445 52.2234 168.495 48.5245 160.594 48.5245C152.819 48.5245 148.932 52.2234 148.932 59.6212V77.8649Z" fill="#F3F3F3"/>
<path d="M262.657 51.7219H252.876C244.724 51.7219 240.649 55.6715 240.649 63.5709V111.907C240.649 117.926 243.659 120.935 249.678 120.935C255.07 120.935 259.396 119.681 262.657 117.174V51.7219ZM262.469 2.25694H285.229V140.872H263.221V133.536C257.829 138.928 251.057 141.624 242.906 141.624C234.755 141.624 228.548 139.367 224.284 134.853C220.021 130.214 217.889 123.756 217.889 115.481V63.0066C217.889 53.1011 220.648 45.3898 226.165 39.8728C231.808 34.2305 239.959 31.4093 250.618 31.4093H262.469V2.25694Z" fill="#F3F3F3"/>
<path d="M326.245 24.8265C317.718 24.8265 313.454 20.6887 313.454 12.4132C313.454 4.13775 317.718 0 326.245 0C334.898 0 339.224 4.13775 339.224 12.4132C339.224 20.6887 334.898 24.8265 326.245 24.8265ZM314.959 33.4781H337.719V140.872H314.959V33.4781Z" fill="#F3F3F3"/>
<path d="M383.901 109.274V114.728C383.901 121.123 387.224 124.321 393.871 124.321C399.012 124.321 403.526 122.941 407.414 120.183V92.7232L394.059 96.4848C389.92 97.6132 387.162 99.0552 385.782 100.811C384.528 102.566 383.901 105.387 383.901 109.274ZM367.16 34.0424C374.308 31.66 383.776 30.4689 395.563 30.4689C407.351 30.4689 415.941 33.102 421.333 38.3682C426.726 43.509 429.422 51.283 429.422 61.6901V140.872H407.978V132.972C403.088 138.615 396.19 141.436 387.287 141.436C378.509 141.436 372.051 139.242 367.913 134.853C363.774 130.464 361.705 123.756 361.705 114.728V108.334C361.705 100.685 363.524 94.6667 367.16 90.2781C370.797 85.8896 376.691 82.5669 384.842 80.3099L407.602 74.1033V61.502C407.477 57.615 406.348 54.7938 404.216 53.0384C402.084 51.283 397.194 50.4053 389.544 50.4053C381.895 50.4053 374.433 51.7219 367.16 54.355V34.0424Z" fill="#F3F3F3"/>
</svg>
