<svg width="616" height="142" viewBox="0 0 616 142" fill="none" xmlns="http://www.w3.org/2000/svg">
<path d="M48.1207 41.2503C48.1207 33.6466 44.1106 29.8447 36.0905 29.8447H23.1056V80.0295H36.0905C44.1106 80.0295 48.1207 76.1642 48.1207 68.4337V41.2503ZM0 9.88487H38.5729C48.8845 9.88487 56.841 12.4195 62.4423 17.4886C68.171 22.5578 71.0353 29.718 71.0353 38.9692V70.7149C71.0353 79.9661 68.171 87.1263 62.4423 92.1955C56.841 97.2646 48.8845 99.7992 38.5729 99.7992H23.1056V140.099H0V9.88487Z" fill="#F3F3F3"/>
<path d="M140.544 28.8942H144.364V50.1847H139.208C132.588 50.1847 126.223 52.0857 120.112 55.8876V140.099H97.0067V29.4645H118.776V37.2584C122.467 34.8505 125.013 33.2664 126.414 32.506C130.615 30.0982 135.325 28.8942 140.544 28.8942Z" fill="#F3F3F3"/>
<path d="M209.029 58.3588C209.029 50.8818 205.146 47.1432 197.38 47.1432C189.742 47.1432 185.923 50.8818 185.923 58.3588V111.205C185.923 118.682 189.742 122.42 197.38 122.42C205.146 122.42 209.029 118.682 209.029 111.205V58.3588ZM163.2 57.7885C163.2 48.4105 166 41.0602 171.602 35.7376C177.33 30.2883 185.923 27.5636 197.38 27.5636C208.965 27.5636 217.558 30.2883 223.159 35.7376C228.888 41.0602 231.752 48.4105 231.752 57.7885V111.775C231.752 121.153 228.888 128.567 223.159 134.016C217.558 139.339 208.965 142 197.38 142C185.923 142 177.33 139.339 171.602 134.016C166 128.567 163.2 121.153 163.2 111.775V57.7885Z" fill="#F3F3F3"/>
<path d="M303.602 49.9947H293.673C285.398 49.9947 281.26 53.9866 281.26 61.9706V110.825C281.26 116.908 284.316 119.949 290.426 119.949C295.9 119.949 300.292 118.682 303.602 116.147V49.9947ZM303.411 0H326.517V140.099H304.175V132.685C298.701 138.135 291.827 140.859 283.552 140.859C275.277 140.859 268.976 138.578 264.647 134.016C260.319 129.327 258.155 122.801 258.155 114.436V61.4003C258.155 51.3887 260.956 43.5948 266.557 38.0187C272.286 32.3159 280.56 29.4645 291.381 29.4645H303.411V0Z" fill="#F3F3F3"/>
<path d="M401.191 29.4645H424.105V140.099H402.336V134.967C396.099 138.515 388.906 140.289 380.759 140.289C372.738 140.289 366.564 138.071 362.236 133.636C357.908 129.2 355.743 122.801 355.743 114.436V29.4645H379.04V110.444C379.04 116.527 382.095 119.569 388.206 119.569C392.661 119.569 396.99 118.365 401.191 115.957V29.4645Z" fill="#F3F3F3"/>
<path d="M452.355 59.3092C452.355 38.7791 464.194 28.5141 487.872 28.5141C496.02 28.5141 503.467 29.4012 510.214 31.1754V52.4659C503.849 50.4382 497.675 49.4244 491.692 49.4244C485.708 49.4244 481.507 50.3115 479.089 52.0857C476.67 53.8599 475.46 56.838 475.46 61.0201V108.544C475.46 112.726 476.606 115.704 478.898 117.478C481.316 119.252 485.581 120.139 491.692 120.139C497.802 120.139 504.04 119.125 510.405 117.098V138.198C503.785 140.099 496.274 141.05 487.872 141.05C464.194 141.05 452.355 130.784 452.355 110.254V59.3092Z" fill="#F3F3F3"/>
<path d="M559.676 9.88487V29.4645H579.535V48.8541H559.676V111.775C559.676 117.731 562.859 120.71 569.224 120.71C572.406 120.71 576.289 119.949 580.872 118.428V138.768C575.525 140.543 570.242 141.43 565.023 141.43C546.182 141.43 536.761 132.242 536.761 113.866V48.8541H525.877V29.4645H537.716L544.591 9.88487H559.676Z" fill="#F3F3F3"/>
<path d="M597.794 57.5984C597.794 47.8403 600.658 40.5533 606.387 35.7376C612.115 30.9219 621.472 28.5141 634.457 28.5141C642.859 28.5141 650.37 29.5279 656.99 31.5556V51.8956C651.134 49.8679 644.578 48.8541 637.322 48.8541C630.193 48.8541 625.546 49.6778 623.382 51.3253C621.345 52.8461 620.327 55.3806 620.327 58.9291V61.5904C620.327 64.125 620.899 66.1526 622.045 67.6734C623.318 69.0674 625.737 70.8416 629.301 72.996L645.151 82.3106C655.717 88.5203 661 96.5676 661 106.452V111.395C661 131.165 648.015 141.05 622.045 141.05C612.879 141.05 604.859 140.162 597.985 138.388V117.668C604.223 119.569 611.097 120.519 618.608 120.519C626.119 120.519 631.211 119.696 633.884 118.048C636.685 116.401 638.085 113.93 638.085 110.635V107.973C638.085 105.439 637.322 103.411 635.794 101.89C634.394 100.369 631.338 98.2785 626.628 95.6171L612.306 87.253C602.631 81.6769 597.794 73.6296 597.794 63.1111V57.5984Z" fill="#F3F3F3"/>
</svg>
